<!DOCTYPE svg PUBLIC "-//W3C//DTD SVG 1.1//EN" "http://www.w3.org/Graphics/SVG/1.1/DTD/svg11.dtd">
<!-- Uploaded to: SVG Repo, www.svgrepo.com, Transformed by: SVG Repo Mixer Tools -->
<svg fill="#7D7DE8" xmlns="http://www.w3.org/2000/svg" width="800px" height="800px" viewBox="0 0 52 52" enable-background="new 0 0 52 52" xml:space="preserve" stroke="#7D7DE8">
<g id="SVGRepo_bgCarrier" stroke-width="0"/>
<g id="SVGRepo_tracerCarrier" stroke-linecap="round" stroke-linejoin="round"/>
<g id="SVGRepo_iconCarrier"> <path d="M20,44c0-3.3,2.7-6,6-6s6,2.7,6,6s-2.7,6-6,6S20,47.3,20,44z M20,26c0-3.3,2.7-6,6-6s6,2.7,6,6s-2.7,6-6,6 S20,29.3,20,26z M20,8c0-3.3,2.7-6,6-6s6,2.7,6,6s-2.7,6-6,6S20,11.3,20,8z"/> </g>
</svg>